<?xml version="1.0" encoding="UTF-8" standalone="no"?>
<!-- Created with Inkscape (http://www.inkscape.org/) -->

<svg
   width="35.601021mm"
   height="44.198299mm"
   viewBox="0 0 35.601021 44.198299"
   version="1.1"
   id="svg5"
   sodipodi:docname="logo_single.svg"
   inkscape:version="1.1.2 (0a00cf5339, 2022-02-04)"
   xmlns:inkscape="http://www.inkscape.org/namespaces/inkscape"
   xmlns:sodipodi="http://sodipodi.sourceforge.net/DTD/sodipodi-0.dtd"
   xmlns="http://www.w3.org/2000/svg"
   xmlns:svg="http://www.w3.org/2000/svg">
  <sodipodi:namedview
     id="namedview7"
     pagecolor="#505050"
     bordercolor="#ffffff"
     borderopacity="1"
     inkscape:pageshadow="0"
     inkscape:pageopacity="0"
     inkscape:pagecheckerboard="1"
     inkscape:document-units="mm"
     showgrid="false"
     inkscape:zoom="0.22103019"
     inkscape:cx="1726.0085"
     inkscape:cy="52.029091"
     inkscape:window-width="1366"
     inkscape:window-height="708"
     inkscape:window-x="0"
     inkscape:window-y="0"
     inkscape:window-maximized="1"
     inkscape:current-layer="svg462" />
  <defs
     id="defs2" />
  <g
     inkscape:label="Calque 1"
     inkscape:groupmode="layer"
     id="layer1"
     transform="translate(-45.645631,-22.430363)">
    <svg
       viewBox="0 0 395.52 149.53977"
       height="149.53978"
       width="395.51999"
       version="1.1"
       id="svg462">
      <g
         id="g454"
         transform="matrix(0.58554973,0,0,0.58554973,34.168564,15.252109)">
        <svg
           viewBox="0 0 205.70736 255.38356"
           height="255.38356"
           width="205.70737"
           version="1.1"
           id="svg452">
          <g
             id="g450">
            <svg
               version="1.1"
               x="0"
               y="0"
               viewBox="19.6005 12.259 60.799313 75.481716"
               enable-background="new 0 0 100 100"
               xml:space="preserve"
               height="255.38356"
               width="205.70737"
               class="icon-icon-0"
               data-fill-palette-color="accent"
               id="icon-0"><g
                 fill="#39cccc"
                 data-fill-palette-color="accent"
                 id="g447"><path
                   d="M 79.324,58.95 42.811,71.576 c -0.676,9.822 -10.365,15.626 -11.567,15.588 2.418,0.992 4.53,2.181 42.378,-10.235 10.449,-3.427 5.702,-17.979 5.702,-17.979 z"
                   fill="#39cccc"
                   data-fill-palette-color="accent"
                   id="path437" /><g
                   fill="#39cccc"
                   data-fill-palette-color="accent"
                   id="g445"><path
                     d="m 77.97,14.884 c -1.555,-1.766 -2.944,-2.625 -4.252,-2.625 -0.824,0 -1.413,0.354 -1.606,0.47 -0.444,0.264 -1.111,0.917 -1.049,2.445 l -4.564,3.739 c -0.679,-0.228 -1.331,-0.344 -1.941,-0.344 -1.939,0 -3.079,1.159 -3.433,1.822 -1.071,1.902 -0.587,4.305 1.356,6.837 L 51.718,40.312 65.929,30.495 c 1.126,0.745 2.595,1.448 4.117,1.448 0.904,0 1.731,-0.245 2.47,-0.738 1.814,-1.238 1.462,-3.695 1.146,-4.909 l 3.825,-4.761 c 0.163,0.021 0.34,0.035 0.521,0.035 0.87,0 1.385,-0.345 1.659,-0.633 1.748,-1.824 0.04,-4.082 -1.697,-6.053 z"
                     fill="#39cccc"
                     data-fill-palette-color="accent"
                     id="path439" /><path
                     d="M 34.239,82.002 C 25.609,80.542 23.542,65.187 28.095,36.356 L 59.232,29.435 60.981,27.307 60.75,26.958 C 59.967,25.784 59.45,24.6 59.213,23.439 l -0.114,-0.564 -36.63,8.142 -0.365,2.128 c -1.349,7.873 -7.386,47.443 6.178,53.268 0.166,0.072 0.331,0.131 0.495,0.189 l 0.335,0.125 0.133,-0.013 c 1.087,-0.106 5.612,-3.086 5.561,-4.122 l -0.117,-0.515 z"
                     fill="#39cccc"
                     data-fill-palette-color="accent"
                     id="path441" /><path
                     d="m 67.98,32.879 -0.688,-0.23 -2.256,29.316 6.63,-2.291 2.112,-27.466 -0.899,0.462 c -1.449,0.745 -3.082,0.823 -4.899,0.209 z"
                     fill="#39cccc"
                     data-fill-palette-color="accent"
                     id="path443" /></g></g></svg>
          </g>
        </svg>
      </g>
      <defs
         id="defs460" />
    </svg>
    <rect
       width="104.64799"
       height="39.565731"
       fill="none"
       stroke="none"
       visibility="hidden"
       id="rect464"
       x="-167.15202"
       y="-2.0549898"
       style="stroke-width:0.264583" />
  </g>
</svg>
